<?xml version="1.0" encoding="UTF-8"?>
<svg id="Layer_1" data-name="Layer 1" xmlns="http://www.w3.org/2000/svg" viewBox="0 0 398.98 85.93">
  <defs>
    <style>
      .cls-1 {
        fill: #2563eb;
      }
    </style>
  </defs>
  <g>
    <path class="cls-1" d="M28.28,44.18l3.79-5.94-5.94-3.79h0s-4.24,5.3-8.8,6.31h0c-4.56,1.01-10.64-2.01-10.64-2.01l-3.79,5.94,5.94,3.79s4.24-5.3,8.8-6.31c4.56-1.01,10.64,2.01,10.64,2.01Z"/>
    <path class="cls-1" d="M67.26,48.5c4.56-1.01,10.64,2.01,10.64,2.01l3.79-5.94-5.94-3.79h0s-4.24,5.3-8.8,6.31h0c-4.56,1.01-10.64-2.01-10.64-2.01h0s0,0,0,0l-3.79,5.94,5.94,3.79s4.24-5.3,8.8-6.31"/>
    <path class="cls-1" d="M32.06,54.22h0s-1.52-6.87-1.52-6.87l-6.87,1.52h0s.75,6.75-1.77,10.68c-2.51,3.94-8.94,6.1-8.94,6.1l1.52,6.87,6.87-1.52s-.75-6.74,1.77-10.68c2.51-3.94,8.94-6.1,8.94-6.1h0Z"/>
    <path class="cls-1" d="M54.05,41.91l6.87-1.52h0s-.75-6.74,1.77-10.68c2.51-3.94,8.94-6.1,8.94-6.1l-1.52-6.87-6.87,1.52s.75,6.74-1.77,10.68c-2.51,3.94-8.94,6.1-8.94,6.1l1.52,6.87Z"/>
    <path class="cls-1" d="M38.43,69.6c1.01,4.56-2.01,10.64-2.01,10.64l5.94,3.79,3.79-5.94s-5.3-4.24-6.31-8.8c-1.01-4.56,2.01-10.64,2.01-10.64l-5.94-3.79-3.79,5.94h0s5.3,4.24,6.31,8.8"/>
    <path class="cls-1" d="M44.75,19.97c1.01,4.56-2.01,10.64-2.01,10.64h0s0,0,0,0l5.94,3.79,3.79-5.94s-5.29-4.23-6.3-8.79c-1-4.56,2.01-10.65,2.01-10.65l-5.94-3.79-3.79,5.94h0s5.3,4.24,6.31,8.8"/>
    <path class="cls-1" d="M57.99,63.81c-3.94-2.51-6.1-8.94-6.1-8.94l-6.87,1.52,1.52,6.87s6.74-.75,10.68,1.77c3.94,2.51,6.1,8.94,6.1,8.94l6.87-1.52-1.52-6.87s-6.74.75-10.68-1.77Z"/>
    <path class="cls-1" d="M26.6,25.45c3.94,2.51,6.1,8.94,6.1,8.94l6.87-1.52-1.52-6.87h0s-6.75.75-10.68-1.77c-3.94-2.51-6.1-8.94-6.1-8.94l-6.87,1.52,1.52,6.87s6.74-.75,10.68,1.77"/>
    <path class="cls-1" d="M16.42,35.21c1.83.23,3.5-1.06,3.74-2.89s-1.06-3.5-2.89-3.74-3.5,1.06-3.74,2.89c-.23,1.83,1.06,3.5,2.89,3.74Z"/>
    <path class="cls-1" d="M68.16,54.06c-1.83-.23-3.5,1.06-3.74,2.89s1.06,3.5,2.89,3.74c1.83.23,3.5-1.06,3.74-2.89s-1.06-3.5-2.89-3.74Z"/>
    <path class="cls-1" d="M17.34,56.26c1.46-1.13,1.73-3.23.6-4.69-1.13-1.46-3.23-1.73-4.69-.6s-1.73,3.23-.6,4.69c1.13,1.46,3.23,1.73,4.69.6Z"/>
    <path class="cls-1" d="M67.25,33c-1.46,1.13-1.73,3.23-.6,4.69s3.23,1.73,4.69.6c1.46-1.13,1.73-3.23.6-4.69-1.13-1.46-3.23-1.73-4.69-.6Z"/>
    <circle class="cls-1" cx="29.55" cy="70.08" r="3.34" transform="translate(-46.49 71.48) rotate(-68.19)"/>
    <path class="cls-1" d="M54.61,22.5c1.83.23,3.5-1.06,3.74-2.89.23-1.83-1.06-3.5-2.89-3.74-1.83-.23-3.5,1.06-3.74,2.89s1.06,3.5,2.89,3.74Z"/>
    <path class="cls-1" d="M49.23,68.99c-1.46,1.13-1.73,3.23-.6,4.69s3.23,1.73,4.69.6c1.46-1.13,1.73-3.23.6-4.69-1.13-1.46-3.23-1.73-4.69-.6Z"/>
    <path class="cls-1" d="M35.35,20.27c1.46-1.13,1.73-3.23.6-4.69-1.13-1.46-3.23-1.73-4.69-.6-1.46,1.13-1.73,3.23-.6,4.69,1.13,1.46,3.23,1.73,4.69.6Z"/>
  </g>
  <g>
    <path class="cls-1" d="M133.5,59.49h-24.71l-4.87,11.44h-9.46l22.24-49.43h9.04l22.31,49.43h-9.6l-4.94-11.44ZM130.47,52.29l-9.32-21.61-9.25,21.61h18.57Z"/>
    <path class="cls-1" d="M160.85,21.5h9.18v41.66h25.84v7.77h-35.02V21.5Z"/>
    <path class="cls-1" d="M204.71,46.21c0-14.62,11.3-25.42,26.62-25.42s26.62,10.73,26.62,25.42-11.3,25.42-26.62,25.42-26.62-10.8-26.62-25.42ZM248.7,46.21c0-10.1-7.41-17.37-17.37-17.37s-17.37,7.27-17.37,17.37,7.41,17.37,17.37,17.37,17.37-7.27,17.37-17.37Z"/>
    <path class="cls-1" d="M319.51,70.93l-.07-32.76-16.24,27.12h-4.1l-16.24-26.69v32.34h-8.76V21.5h7.56l19.63,32.76,19.28-32.76h7.56l.07,49.43h-8.69Z"/>
    <path class="cls-1" d="M380.15,59.49h-24.71l-4.87,11.44h-9.46l22.24-49.43h9.04l22.31,49.43h-9.6l-4.94-11.44ZM377.12,52.29l-9.32-21.61-9.25,21.61h18.57Z"/>
  </g>
</svg>